<?xml version="1.0" encoding="UTF-8" standalone="no"?>
<!-- Created with Inkscape (http://www.inkscape.org/) -->

<svg
   width="800"
   height="700"
   viewBox="0 0 2.6666667 2.3333333"
   version="1.1"
   id="svg1"
   xml:space="preserve"
   inkscape:export-filename="lick.png"
   inkscape:export-xdpi="288"
   inkscape:export-ydpi="288"
   inkscape:version="1.4.2 (ebf0e940, 2025-05-08)"
   sodipodi:docname="lick.svg"
   xmlns:inkscape="http://www.inkscape.org/namespaces/inkscape"
   xmlns:sodipodi="http://sodipodi.sourceforge.net/DTD/sodipodi-0.dtd"
   xmlns:xlink="http://www.w3.org/1999/xlink"
   xmlns="http://www.w3.org/2000/svg"
   xmlns:svg="http://www.w3.org/2000/svg"
   xmlns:ns40="http://www.iki.fi/pav/software/textext/"><sodipodi:namedview
     id="namedview1"
     pagecolor="#ffffff"
     bordercolor="#000000"
     borderopacity="0.25"
     inkscape:showpageshadow="2"
     inkscape:pageopacity="0.0"
     inkscape:pagecheckerboard="0"
     inkscape:deskcolor="#d1d1d1"
     inkscape:document-units="mm"
     inkscape:zoom="0.6333638"
     inkscape:cx="333.93131"
     inkscape:cy="311.82711"
     inkscape:window-width="1392"
     inkscape:window-height="938"
     inkscape:window-x="109"
     inkscape:window-y="25"
     inkscape:window-maximized="0"
     inkscape:current-layer="layer3"
     inkscape:export-bgcolor="#ffffffff" /><defs
     id="defs1"><rect
       x="-90.430886"
       y="-8.9314455"
       width="610.68759"
       height="88.198025"
       id="rect2" /><rect
       x="46.65165"
       y="348.09308"
       width="38.278277"
       height="35.885884"
       id="rect1" /><rect
       x="46.651649"
       y="348.09308"
       width="38.278278"
       height="35.885883"
       id="rect1-9" /></defs><g
     inkscape:groupmode="layer"
     id="layer2"
     inkscape:label="border"><rect
       style="fill:#ffffff;stroke:#dddddd;stroke-width:0.00584889;stroke-linejoin:round;stroke-opacity:1"
       id="rect3"
       width="1.2539936"
       height="2.2492692"
       x="0.040719721"
       y="0.040719721"
       rx="1.0198683e-19" /><rect
       style="fill:#ffffff;stroke:#dddddd;stroke-width:0.00584889;stroke-linejoin:round;stroke-opacity:1"
       id="rect3-8"
       width="1.2539936"
       height="2.2492692"
       x="1.3761528"
       y="0.040719721"
       rx="1.0198683e-19" /></g><g
     inkscape:label="img"
     inkscape:groupmode="layer"
     id="layer1"><image
       width="1.2346457"
       height="2.16063"
       preserveAspectRatio="none"
       style="image-rendering:optimizeQuality"
       xlink:href="lick_photo.png"
       id="image1"
       x="1.3858268"
       y="0.1007874" /><image
       width="1.2346457"
       height="1.080315"
       preserveAspectRatio="none"
       style="image-rendering:optimizeQuality"
       xlink:href="lick_p_id.png"
       id="image1-3"
       x="0.050393701"
       y="0.11338583" /><image
       width="1.2346457"
       height="1.080315"
       preserveAspectRatio="none"
       style="image-rendering:optimizeQuality"
       xlink:href="photometry_id.png"
       id="image1-8"
       x="0.050393701"
       y="1.1968504" /></g><g
     inkscape:groupmode="layer"
     id="layer3"
     inkscape:label="stickers"><rect
       style="fill:#ffffff;stroke:#dddddd;stroke-width:0.0056229;stroke-linejoin:round;stroke-opacity:1"
       id="rect4"
       width="0.14555821"
       height="0.14555821"
       x="0.00281145"
       y="0.00281145"
       rx="9.5198717e-20" /><rect
       style="fill:#ffffff;stroke:#dddddd;stroke-width:0.0056229;stroke-linejoin:round;stroke-opacity:1"
       id="rect4-7"
       width="0.14555821"
       height="0.14555821"
       x="1.3382446"
       y="0.00281145"
       rx="9.5198717e-20" /><circle
       style="fill:#ffffff;stroke:#dddddd;stroke-width:0.00622339;stroke-linejoin:round;stroke-opacity:1"
       id="path4"
       cx="0.32125986"
       cy="0.23307087"
       r="0.066179648" /><text
       xml:space="preserve"
       style="font-size:0.0888889px;font-family:'DejaVu Sans';-inkscape-font-specification:'DejaVu Sans';text-align:center;writing-mode:lr-tb;direction:ltr;text-anchor:middle;fill:#ffffff;stroke:#00a4d5;stroke-width:0.00629919;stroke-linejoin:round;stroke-opacity:1"
       x="0.31893203"
       y="0.26281032"
       id="text4"><tspan
         sodipodi:role="line"
         id="tspan4"
         style="fill:#00a4d5;fill-opacity:1;stroke:none;stroke-width:0.00629921;stroke-opacity:1"
         x="0.31893203"
         y="0.26281032">i</tspan></text><circle
       style="fill:#ffffff;stroke:#dddddd;stroke-width:0.00622339;stroke-linejoin:round;stroke-opacity:1"
       id="path4-0"
       cx="1.6314961"
       cy="0.27716535"
       r="0.066179648" /><text
       xml:space="preserve"
       style="font-size:0.0888889px;font-family:'DejaVu Sans';-inkscape-font-specification:'DejaVu Sans';text-align:center;writing-mode:lr-tb;direction:ltr;text-anchor:middle;fill:#ffffff;stroke:#00a4d5;stroke-width:0.00629919;stroke-linejoin:round;stroke-opacity:1"
       x="1.6291683"
       y="0.30690479"
       id="text4-4"><tspan
         sodipodi:role="line"
         id="tspan4-0"
         style="fill:#00a4d5;fill-opacity:1;stroke:none;stroke-width:0.00629921;stroke-opacity:1"
         x="1.6291683"
         y="0.30690479">i</tspan></text><circle
       style="fill:#ffffff;stroke:#dddddd;stroke-width:0.00622339;stroke-linejoin:round;stroke-opacity:1"
       id="path4-4"
       cx="1.6314961"
       cy="0.78110236"
       r="0.066179648" /><text
       xml:space="preserve"
       style="font-size:0.0888889px;font-family:'DejaVu Sans';-inkscape-font-specification:'DejaVu Sans';text-align:center;writing-mode:lr-tb;direction:ltr;text-anchor:middle;fill:#ffffff;stroke:#00a4d5;stroke-width:0.00629919;stroke-linejoin:round;stroke-opacity:1"
       x="1.6291683"
       y="0.8108418"
       id="text4-8"><tspan
         sodipodi:role="line"
         id="tspan4-7"
         style="fill:#00a4d5;fill-opacity:1;stroke:none;stroke-width:0.00629921;stroke-opacity:1"
         x="1.6291683"
         y="0.8108418">ii</tspan></text><circle
       style="fill:#ffffff;stroke:#dddddd;stroke-width:0.00622339;stroke-linejoin:round;stroke-opacity:1"
       id="path4-5"
       cx="1.6314961"
       cy="1.2913386"
       r="0.066179648" /><text
       xml:space="preserve"
       style="font-size:0.0888889px;font-family:'DejaVu Sans';-inkscape-font-specification:'DejaVu Sans';text-align:center;writing-mode:lr-tb;direction:ltr;text-anchor:middle;fill:#ffffff;stroke:#00a4d5;stroke-width:0.00629919;stroke-linejoin:round;stroke-opacity:1"
       x="1.6324471"
       y="1.3248576"
       id="text4-89"><tspan
         sodipodi:role="line"
         id="tspan4-6"
         style="fill:#00a4d5;fill-opacity:1;stroke:none;stroke-width:0.00629921;stroke-opacity:1"
         x="1.6324471"
         y="1.3248576">iii</tspan></text><circle
       style="fill:#ffffff;stroke:#dddddd;stroke-width:0.00622339;stroke-linejoin:round;stroke-opacity:1"
       id="path4-3"
       cx="1.6314961"
       cy="1.7952756"
       r="0.066179648" /><text
       xml:space="preserve"
       style="font-size:0.0888889px;font-family:'DejaVu Sans';-inkscape-font-specification:'DejaVu Sans';text-align:center;writing-mode:lr-tb;direction:ltr;text-anchor:middle;fill:#ffffff;stroke:#00a4d5;stroke-width:0.00629919;stroke-linejoin:round;stroke-opacity:1"
       x="1.6353128"
       y="1.8250151"
       id="text4-83"><tspan
         sodipodi:role="line"
         id="tspan4-60"
         style="fill:#00a4d5;fill-opacity:1;stroke:none;stroke-width:0.00629921;stroke-opacity:1"
         x="1.6353128"
         y="1.8250151">iv</tspan></text><circle
       style="fill:#ffffff;stroke:#dddddd;stroke-width:0.00622339;stroke-linejoin:round;stroke-opacity:1"
       id="path4-30"
       cx="0.29606301"
       cy="1.3165355"
       r="0.066179648" /><text
       xml:space="preserve"
       style="font-size:0.0888889px;font-family:'DejaVu Sans';-inkscape-font-specification:'DejaVu Sans';text-align:center;writing-mode:lr-tb;direction:ltr;text-anchor:middle;fill:#ffffff;stroke:#00a4d5;stroke-width:0.00629919;stroke-linejoin:round;stroke-opacity:1"
       x="0.29373518"
       y="1.346275"
       id="text4-1"><tspan
         sodipodi:role="line"
         id="tspan4-9"
         style="fill:#00a4d5;fill-opacity:1;stroke:none;stroke-width:0.00629921;stroke-opacity:1"
         x="0.29373518"
         y="1.346275">ii</tspan></text><g
       transform="matrix(0,-0.00623181,0.00623181,0,1.3984275,0.92598342)"
       ns40:version="1.11.1"
       ns40:texconverter="pdflatex"
       ns40:pdfconverter="inkscape"
       ns40:text="$\\beta_1 (s)$"
       ns40:preamble="/Users/xinaw/Library/Application Support/org.inkscape.Inkscape/config/inkscape/extensions/textext/default_packages.tex"
       ns40:scale="1.0"
       ns40:alignment="middle center"
       ns40:inkscapeversion="1.4.2"
       ns40:jacobian_sqrt="1.33333"
       id="g9"><defs
   id="id-51910e5a-8249-4e0e-9ca4-182f135955aa">
    <g
   id="id-ffd74c06-523e-44dd-8aee-d8cbea464325">
      <g
   id="id-7a980f4a-ea19-411d-93c1-2287b45f0938">
        <path
   d="m 5.734375,-5.671875 c 0,-0.75 -0.546875,-1.359375 -1.359375,-1.359375 -0.578125,0 -0.859375,0.15625 -1.203125,0.40625 C 2.625,-6.21875 2.078125,-5.25 1.890625,-4.5 L 0.296875,1.828125 C 0.296875,1.875 0.34375,1.9375 0.421875,1.9375 0.5,1.9375 0.53125,1.90625 0.53125,1.890625 L 1.234375,-0.875 c 0.1875,0.609375 0.625,0.96875 1.359375,0.96875 C 3.3125,0.09375 4.0625,-0.25 4.515625,-0.6875 5,-1.140625 5.3125,-1.78125 5.3125,-2.515625 c 0,-0.71875 -0.375,-1.25 -0.734375,-1.484375 0.578125,-0.34375 1.15625,-0.953125 1.15625,-1.671875 z M 3.9375,-4.015625 c -0.125,0.046875 -0.234375,0.0625 -0.484375,0.0625 -0.140625,0 -0.328125,0.015625 -0.4375,-0.03125 0.03125,-0.109375 0.390625,-0.078125 0.5,-0.078125 0.203125,0 0.296875,0 0.421875,0.046875 z M 5.171875,-5.90625 c 0,0.703125 -0.375,1.421875 -0.890625,1.734375 C 4,-4.28125 3.8125,-4.296875 3.515625,-4.296875 c -0.21875,0 -0.78125,-0.015625 -0.78125,0.3125 0,0.28125 0.515625,0.25 0.6875,0.25 0.375,0 0.53125,0 0.828125,-0.125 0.375,0.359375 0.421875,0.671875 0.4375,1.125 0.015625,0.578125 -0.21875,1.328125 -0.5,1.71875 C 3.796875,-0.484375 3.125,-0.125 2.5625,-0.125 c -0.765625,0 -1.140625,-0.578125 -1.140625,-1.28125 0,-0.09375 0,-0.25 0.046875,-0.4375 L 2.109375,-4.359375 C 2.328125,-5.21875 3.046875,-6.8125 4.25,-6.8125 c 0.578125,0 0.921875,0.3125 0.921875,0.90625 z m 0,0"
   id="id-c3a524c2-fec3-4ef3-bc20-ab64420f9783" />
      </g>
      <g
   id="id-ff2150db-1524-4742-8a29-157dd60e1145">
        <path
   d="M 3.890625,-3.734375 C 3.625,-3.71875 3.421875,-3.5 3.421875,-3.28125 c 0,0.140625 0.09375,0.296875 0.3125,0.296875 0.21875,0 0.453125,-0.171875 0.453125,-0.5625 C 4.1875,-4 3.765625,-4.40625 3,-4.40625 c -1.3125,0 -1.6875,1.015625 -1.6875,1.453125 0,0.78125 0.734375,0.921875 1.03125,0.984375 0.515625,0.109375 1.03125,0.21875 1.03125,0.765625 0,0.25 -0.21875,1.09375 -1.421875,1.09375 -0.140625,0 -0.90625,0 -1.140625,-0.53125 0.390625,0.046875 0.640625,-0.25 0.640625,-0.53125 0,-0.21875 -0.171875,-0.34375 -0.375,-0.34375 -0.265625,0 -0.5625,0.203125 -0.5625,0.65625 0,0.5625 0.578125,0.96875 1.421875,0.96875 1.625,0 2.015625,-1.203125 2.015625,-1.65625 0,-0.359375 -0.1875,-0.609375 -0.3125,-0.71875 -0.265625,-0.28125 -0.5625,-0.34375 -1,-0.421875 -0.359375,-0.078125 -0.75,-0.15625 -0.75,-0.609375 C 1.890625,-3.578125 2.125,-4.1875 3,-4.1875 c 0.25,0 0.75,0.078125 0.890625,0.453125 z m 0,0"
   id="id-651ac2ad-81a3-43ec-886a-216a4f3a7076" />
      </g>
      <g
   id="id-ad448698-010c-47cf-a9dd-800e8868327f">
        <path
   d="m 2.328125,-4.4375 c 0,-0.1875 0,-0.1875 -0.203125,-0.1875 -0.453125,0.4375 -1.078125,0.4375 -1.359375,0.4375 v 0.25 c 0.15625,0 0.625,0 1,-0.1875 v 3.546875 c 0,0.234375 0,0.328125 -0.6875,0.328125 H 0.8125 V 0 c 0.125,0 0.984375,-0.03125 1.234375,-0.03125 0.21875,0 1.09375,0.03125 1.25,0.03125 V -0.25 H 3.03125 c -0.703125,0 -0.703125,-0.09375 -0.703125,-0.328125 z m 0,0"
   id="id-7d089565-2bbc-42c9-bf4d-7a19c8eb6a6c" />
      </g>
      <g
   id="id-4b06434e-2b33-41f1-88d6-714e7ba2e611">
        <path
   d="m 3.296875,2.390625 c 0,-0.03125 0,-0.046875 -0.171875,-0.21875 C 1.890625,0.921875 1.5625,-0.96875 1.5625,-2.5 c 0,-1.734375 0.375,-3.46875 1.609375,-4.703125 0.125,-0.125 0.125,-0.140625 0.125,-0.171875 0,-0.078125 -0.03125,-0.109375 -0.09375,-0.109375 -0.109375,0 -1,0.6875 -1.59375,1.953125 -0.5,1.09375 -0.625,2.203125 -0.625,3.03125 0,0.78125 0.109375,1.984375 0.65625,3.125 C 2.25,1.84375 3.09375,2.5 3.203125,2.5 c 0.0625,0 0.09375,-0.03125 0.09375,-0.109375 z m 0,0"
   id="id-9c16dcd5-deaa-4a05-9259-8a4ca95e4fff" />
      </g>
      <g
   id="id-702614f7-5ab1-46ee-9d57-d100a149d851">
        <path
   d="m 2.875,-2.5 c 0,-0.765625 -0.109375,-1.96875 -0.65625,-3.109375 -0.59375,-1.21875 -1.453125,-1.875 -1.546875,-1.875 -0.0625,0 -0.109375,0.046875 -0.109375,0.109375 0,0.03125 0,0.046875 0.1875,0.234375 0.984375,0.984375 1.546875,2.5625 1.546875,4.640625 0,1.71875 -0.359375,3.46875 -1.59375,4.71875 C 0.5625,2.34375 0.5625,2.359375 0.5625,2.390625 0.5625,2.453125 0.609375,2.5 0.671875,2.5 0.765625,2.5 1.671875,1.8125 2.25,0.546875 2.765625,-0.546875 2.875,-1.65625 2.875,-2.5 Z m 0,0"
   id="id-a1d43dbb-8df8-4df7-ab1a-15409c9221f3" />
      </g>
    </g>
  </defs>
  <g
   fill="#000000"
   fill-opacity="1"
   id="id-95f46163-f4c6-4ebb-b6ff-10e3b46c433f"
   transform="translate(-149.009,-127.281)">
    <g
   transform="translate(148.712,134.765)"
   id="g4"><path
   d="m 5.734375,-5.671875 c 0,-0.75 -0.546875,-1.359375 -1.359375,-1.359375 -0.578125,0 -0.859375,0.15625 -1.203125,0.40625 C 2.625,-6.21875 2.078125,-5.25 1.890625,-4.5 L 0.296875,1.828125 C 0.296875,1.875 0.34375,1.9375 0.421875,1.9375 0.5,1.9375 0.53125,1.90625 0.53125,1.890625 L 1.234375,-0.875 c 0.1875,0.609375 0.625,0.96875 1.359375,0.96875 C 3.3125,0.09375 4.0625,-0.25 4.515625,-0.6875 5,-1.140625 5.3125,-1.78125 5.3125,-2.515625 c 0,-0.71875 -0.375,-1.25 -0.734375,-1.484375 0.578125,-0.34375 1.15625,-0.953125 1.15625,-1.671875 z M 3.9375,-4.015625 c -0.125,0.046875 -0.234375,0.0625 -0.484375,0.0625 -0.140625,0 -0.328125,0.015625 -0.4375,-0.03125 0.03125,-0.109375 0.390625,-0.078125 0.5,-0.078125 0.203125,0 0.296875,0 0.421875,0.046875 z M 5.171875,-5.90625 c 0,0.703125 -0.375,1.421875 -0.890625,1.734375 C 4,-4.28125 3.8125,-4.296875 3.515625,-4.296875 c -0.21875,0 -0.78125,-0.015625 -0.78125,0.3125 0,0.28125 0.515625,0.25 0.6875,0.25 0.375,0 0.53125,0 0.828125,-0.125 0.375,0.359375 0.421875,0.671875 0.4375,1.125 0.015625,0.578125 -0.21875,1.328125 -0.5,1.71875 C 3.796875,-0.484375 3.125,-0.125 2.5625,-0.125 c -0.765625,0 -1.140625,-0.578125 -1.140625,-1.28125 0,-0.09375 0,-0.25 0.046875,-0.4375 L 2.109375,-4.359375 C 2.328125,-5.21875 3.046875,-6.8125 4.25,-6.8125 c 0.578125,0 0.921875,0.3125 0.921875,0.90625 z m 0,0"
   id="id-6729ffad-1bd6-43ee-9835-a2daf78566fd" />
      </g></g>
  <g
   fill="#000000"
   fill-opacity="1"
   id="id-76dfb2a5-3bc6-4e15-93dd-78f7df6ec0ae"
   transform="translate(-149.009,-127.281)">
    <g
   transform="translate(154.347,136.259)"
   id="g5"><path
   d="m 2.328125,-4.4375 c 0,-0.1875 0,-0.1875 -0.203125,-0.1875 -0.453125,0.4375 -1.078125,0.4375 -1.359375,0.4375 v 0.25 c 0.15625,0 0.625,0 1,-0.1875 v 3.546875 c 0,0.234375 0,0.328125 -0.6875,0.328125 H 0.8125 V 0 c 0.125,0 0.984375,-0.03125 1.234375,-0.03125 0.21875,0 1.09375,0.03125 1.25,0.03125 V -0.25 H 3.03125 c -0.703125,0 -0.703125,-0.09375 -0.703125,-0.328125 z m 0,0"
   id="id-99c3e7f2-a402-4912-8703-f059926e2d2e" />
      </g></g>
  <g
   fill="#000000"
   fill-opacity="1"
   id="id-ac9da899-2938-444a-b7c9-62156060412b"
   transform="translate(-149.009,-127.281)">
    <g
   transform="translate(158.817,134.765)"
   id="g6"><path
   d="m 3.296875,2.390625 c 0,-0.03125 0,-0.046875 -0.171875,-0.21875 C 1.890625,0.921875 1.5625,-0.96875 1.5625,-2.5 c 0,-1.734375 0.375,-3.46875 1.609375,-4.703125 0.125,-0.125 0.125,-0.140625 0.125,-0.171875 0,-0.078125 -0.03125,-0.109375 -0.09375,-0.109375 -0.109375,0 -1,0.6875 -1.59375,1.953125 -0.5,1.09375 -0.625,2.203125 -0.625,3.03125 0,0.78125 0.109375,1.984375 0.65625,3.125 C 2.25,1.84375 3.09375,2.5 3.203125,2.5 c 0.0625,0 0.09375,-0.03125 0.09375,-0.109375 z m 0,0"
   id="id-ab7da2dd-fbbc-4a6b-8637-88c8685bf57d" />
      </g></g>
  <g
   fill="#000000"
   fill-opacity="1"
   id="id-8829042f-e1a2-451a-ad4b-47e8cdb74cb2"
   transform="translate(-149.009,-127.281)">
    <g
   transform="translate(162.691,134.765)"
   id="g7"><path
   d="M 3.890625,-3.734375 C 3.625,-3.71875 3.421875,-3.5 3.421875,-3.28125 c 0,0.140625 0.09375,0.296875 0.3125,0.296875 0.21875,0 0.453125,-0.171875 0.453125,-0.5625 C 4.1875,-4 3.765625,-4.40625 3,-4.40625 c -1.3125,0 -1.6875,1.015625 -1.6875,1.453125 0,0.78125 0.734375,0.921875 1.03125,0.984375 0.515625,0.109375 1.03125,0.21875 1.03125,0.765625 0,0.25 -0.21875,1.09375 -1.421875,1.09375 -0.140625,0 -0.90625,0 -1.140625,-0.53125 0.390625,0.046875 0.640625,-0.25 0.640625,-0.53125 0,-0.21875 -0.171875,-0.34375 -0.375,-0.34375 -0.265625,0 -0.5625,0.203125 -0.5625,0.65625 0,0.5625 0.578125,0.96875 1.421875,0.96875 1.625,0 2.015625,-1.203125 2.015625,-1.65625 0,-0.359375 -0.1875,-0.609375 -0.3125,-0.71875 -0.265625,-0.28125 -0.5625,-0.34375 -1,-0.421875 -0.359375,-0.078125 -0.75,-0.15625 -0.75,-0.609375 C 1.890625,-3.578125 2.125,-4.1875 3,-4.1875 c 0.25,0 0.75,0.078125 0.890625,0.453125 z m 0,0"
   id="id-e896cc97-ed6c-4971-b9d4-716101f99d72" />
      </g></g>
  <g
   fill="#000000"
   fill-opacity="1"
   id="id-83a7e007-e5a7-40df-bdd6-91eb0e4ee4dc"
   transform="translate(-149.009,-127.281)">
    <g
   transform="translate(167.361,134.765)"
   id="g8"><path
   d="m 2.875,-2.5 c 0,-0.765625 -0.109375,-1.96875 -0.65625,-3.109375 -0.59375,-1.21875 -1.453125,-1.875 -1.546875,-1.875 -0.0625,0 -0.109375,0.046875 -0.109375,0.109375 0,0.03125 0,0.046875 0.1875,0.234375 0.984375,0.984375 1.546875,2.5625 1.546875,4.640625 0,1.71875 -0.359375,3.46875 -1.59375,4.71875 C 0.5625,2.34375 0.5625,2.359375 0.5625,2.390625 0.5625,2.453125 0.609375,2.5 0.671875,2.5 0.765625,2.5 1.671875,1.8125 2.25,0.546875 2.765625,-0.546875 2.875,-1.65625 2.875,-2.5 Z m 0,0"
   id="id-6477d354-b8a5-47e7-a374-1f7cdbba501f" />
      </g></g>
</g><text
       xml:space="preserve"
       style="font-size:0.124444px;font-family:'DejaVu Sans';-inkscape-font-specification:'DejaVu Sans';text-align:center;writing-mode:lr-tb;direction:ltr;text-anchor:middle;fill:#00a4d5;fill-opacity:1;stroke:none;stroke-width:0.00629919;stroke-linejoin:round;stroke-opacity:1"
       x="0.073088795"
       y="0.12221622"
       id="text9"><tspan
         sodipodi:role="line"
         id="tspan9"
         style="font-size:0.124444px;fill:#183e82;fill-opacity:1;stroke-width:0.00629921"
         x="0.073088795"
         y="0.12221622">A</tspan></text><text
       xml:space="preserve"
       style="font-size:0.124444px;font-family:'DejaVu Sans';-inkscape-font-specification:'DejaVu Sans';text-align:center;writing-mode:lr-tb;direction:ltr;text-anchor:middle;fill:#00a4d5;fill-opacity:1;stroke:none;stroke-width:0.00629919;stroke-linejoin:round;stroke-opacity:1"
       x="1.4137801"
       y="0.12221622"
       id="text9-0"><tspan
         sodipodi:role="line"
         id="tspan9-4"
         style="font-size:0.124444px;fill:#183e82;fill-opacity:1;stroke-width:0.00629921"
         x="1.4137801"
         y="0.12221622">B</tspan></text></g></svg>
